<svg xmlns="http://www.w3.org/2000/svg" version="1.1" xmlns:xlink="http://www.w3.org/1999/xlink" width="163" height="163"><svg width="163" height="163" viewBox="0 0 163 163" fill="none" xmlns="http://www.w3.org/2000/svg">
<path d="M103.722 147H118.786" stroke="#1D3777" stroke-width="8"></path>
<path d="M6.06678 129.5C14.8973 119.5 -2.39935 139.5 15.9362 118C44.5056 84.5 31 68.9999 8.66401 66.4999C-6.01159 64.8573 19.7455 47.6666 33.5973 36.4999L55.1541 34.7499M76.711 32.9999L55.1541 34.7499M76.711 32.9999L83.4637 32.4999V81.2499M76.711 32.9999L68.3999 81.2499M55.1541 34.7499L36.7139 129.5M60.0888 129.5L68.3999 81.2499M83.4637 129.5V81.2499M68.3999 81.2499H83.4637M95.9304 31V120L123.98 91.5C147.355 60 117.574 57.6667 98.5276 66.5C136.343 26.9 116.189 28.5 95.9304 31Z" stroke="#1D3777" stroke-width="8"></path>
<path d="M63.7249 22V4.5H158.783V8V159H63.7249V139.5" stroke="#1D3777" stroke-width="8"></path>
</svg><style>@media (prefers-color-scheme: light) { :root { filter: none; } }
@media (prefers-color-scheme: dark) { :root { filter: contrast(0.3846153846153846) brightness(4.5); } }
</style></svg>